<svg xmlns="http://www.w3.org/2000/svg" viewBox="0 0 103.1 64.91"><defs><style>.cls-1{fill:#343a40;}.cls-2{fill:#dc3545;}</style></defs><title>Asset 1</title><g id="Layer_2" data-name="Layer 2"><g id="Layer_1-2" data-name="Layer 1"><path class="cls-1" d="M91.18,2.9A7.91,7.91,0,0,1,93.71.72,7.11,7.11,0,0,1,97,0a7.4,7.4,0,0,1,4.25,1.24,3.83,3.83,0,0,1,1.84,3.31,4.47,4.47,0,0,1-.13,1,4.85,4.85,0,0,1-.38,1A204.18,204.18,0,0,0,86.36,33.81q-6.85,13.86-13.19,27.4a6.24,6.24,0,0,1-2.54,2.69,7.28,7.28,0,0,1-6.84.15A6.47,6.47,0,0,1,61.41,62a3.53,3.53,0,0,1-.28-.5Q54.47,47.54,48.06,33.71T35.13,5.58c0-.06,0-.08-.07,0s-.06,0-.06-.15V4.86a4.19,4.19,0,0,1,1.71-3.62A6.82,6.82,0,0,1,40.83,0a7.19,7.19,0,0,1,5.55,2.45,3.43,3.43,0,0,1,.48.75Q50,9.77,52.5,15q2.53,5.43,4.88,10.4c1.57,3.3,3.11,6.65,4.63,10l2.32,5.19a3.15,3.15,0,0,0,5.67.19h0V41l2-4a14.8,14.8,0,0,1,.89-1.65,15.62,15.62,0,0,0,.88-1.66Q77.87,25.55,82,17.84A144.1,144.1,0,0,1,91.18,2.9Z"/><path class="cls-2" d="M58,6.87a8.63,8.63,0,0,1,4.88,1.34,3.07,3.07,0,0,1,1.58,2.7,3.16,3.16,0,0,1-1.39,2.48,8.83,8.83,0,0,1-4,1.51,5.08,5.08,0,0,1-.67.07c-1.42,0-2.89.08-4.42.08h0a4.61,4.61,0,0,0-4.61,4.62q0,5.76,0,11.49.08,8,.07,16.12A13.59,13.59,0,0,1,46,56.47a23.42,23.42,0,0,1-9.56,6.15,36,36,0,0,1-12.72,2.29A32.43,32.43,0,0,1,15,63.77a18.85,18.85,0,0,1-7.15-3.72H8a18.88,18.88,0,0,1-1.46-1.29c-.72-.67-1.45-1.41-2.21-2.2S2.85,55,2.22,54.35s-1-1.1-1-1.28A3.42,3.42,0,0,1,0,50.59a3.29,3.29,0,0,1,1.65-2.71,7.09,7.09,0,0,1,4.18-1.15,10.49,10.49,0,0,1,4.4,1,4.58,4.58,0,0,1,1,.62,11.56,11.56,0,0,1,2.46,2.76A20.92,20.92,0,0,0,15.26,53a13.51,13.51,0,0,0,1.83,1.61,11.49,11.49,0,0,0,3.36,1.51,13.87,13.87,0,0,0,3.73.51,16.47,16.47,0,0,0,4.94-.74,14,14,0,0,0,4.18-2,9.57,9.57,0,0,0,2.09-1.79,4.89,4.89,0,0,0,1.08-2,60.35,60.35,0,0,0,.82-7.07q.2-3.5.19-7,0-4.87-.19-10.38-.1-3.06-.23-5.95a4.59,4.59,0,0,0-4.67-4.39c-1.59,0-3.18,0-4.79,0q-4.68,0-9.11,0c-1.69,0-3.34,0-4.94,0s-3,0-4.59,0a5.48,5.48,0,0,1-.7,0A8.85,8.85,0,0,1,4,13.81a3,3,0,0,1-1.46-2.62q0-2.31,4.26-3.73a4.39,4.39,0,0,1,1.39-.22c1.88,0,3.8,0,5.75,0,2.19,0,4.39,0,6.58,0,2.79,0,5.76,0,8.93-.05s6.39,0,9.69,0,6.54,0,9.74,0S55.12,6.93,58,6.87Z"/></g></g></svg>